<?xml version="1.0" encoding="UTF-8"?>
<svg id="Layer_1" xmlns="http://www.w3.org/2000/svg" version="1.1" viewBox="0 0 380 502">
  <!-- Generator: Adobe Illustrator 29.3.1, SVG Export Plug-In . SVG Version: 2.1.0 Build 151)  -->
  <defs>
    <style>
      .st0 {
        fill: #010101;
      }
    </style>
  </defs>
  <path d="M362.8,103.3c-22.6-21.3-45.6-43.1-67.8-64.1-8.8-8.3-17.5-16.6-26.3-24.9-10.2-9.7-22.1-14.4-36.3-14.4-21,0-42.1,0-63.1,0-38.6,0-78.6,0-117.8,0-4.7,0-9,.5-12.7,1.3C15.2,7,0,26.7,0,51.6,0,123.2,0,194.8,0,266.6v71.4s0,37.4,0,37.4c0,24.8,0,49.4,0,74,0,30.9,21.6,52.5,52.5,52.5,91.7,0,183.3,0,274.9,0,31,0,52.6-21.5,52.6-52.4,0-40,0-80,0-120,0-60.9,0-123.9,0-185.9,0-16.2-5.6-29.4-17.3-40.4ZM254,66.5h0c0-9.2,0-17.3,0-25.5,0-1.9,1.1-3.2,1.5-3.6,0,0,.1-.2.2-.3.9-1.1,2.2-1.8,3.6-1.8,1.4,0,2.8.4,3.8,1.4,15.9,15,31.7,30,47.7,45.1l30.9,29.3c1.4,1.4,1.9,3.4,1.3,5.3-.7,1.9-2.3,3.2-4.3,3.3-.6,0-1.1,0-1.6.1-1,.1-2,.2-3.1.2h-22.5c-7.5,0-14.9,0-22.4,0s-15,0-22.6,0c-9,0-12.6-3.6-12.6-12.5,0-9.1,0-18.2,0-27.3v-13.6ZM360,450c0,19.5-12.6,32-32.2,32-30.7,0-61.5,0-92.2,0s-60.9,0-91.4,0H52.4c-20,0-32.4-12.4-32.4-32.3V52.2c0-19.5,12.6-32.2,32-32.2,23.7,0,47.3,0,71,0h35.5v5h0v-5h70.5c2.8,0,5,2.2,5,5v5c0,8.7,0,17.3,0,26,0,17.3,0,34.7,0,52,0,19.4,12.6,32,32,32,19.6,0,39.3,0,59,0h29.8c2.7,0,4.9,2.1,5,4.7,0,.5,0,1.1,0,1.6,0,1,.1,2.1.1,3.2v100.2c0,66.8,0,133.5,0,200.3Z"/>
  <path d="M64.1,270.9c3.7-5.4,8.6-7.4,14.7-7.4,72.2,0,144.3,0,216.5,0,9.8,0,16.5,6,16.6,14.8.1,8.9-6.7,15.2-16.7,15.2-72.2,0-144.3,0-216.5,0-13.2,0-20-10.3-14.6-22.6h0Z"/>
  <path d="M217,361.1h78c10.2,0,17,6,17,14.9,0,8.9-6.8,15.1-16.8,15.1-72.1,0-144.3,0-216.4,0-10,0-16.9-6.2-16.8-15.1,0-8.9,6.9-14.9,17.1-14.9,45.8,0,91.6,0,137.9,0h0Z"/>
  <path class="st0" d="M70.1,200.2c-7.2-5-9.5-10.9-7.3-17.7,2.3-6.9,7.6-10.5,15.7-10.5,23.3,0,46.6,0,70,0,9.5,0,16.5,6.6,16.3,15.2-.1,8.5-6.9,14.8-16.2,14.8-23.5,0-47,0-70.5,0-2.6,0-5.1-1-8.1-1.7Z"/>
</svg>