<svg xmlns="http://www.w3.org/2000/svg" viewBox="0 0 100 100" preserveAspectRatio="xMidYMid" width="200" height="200" style="shape-rendering: auto; display: block; background: rgb(255, 255, 255);" xmlns:xlink="http://www.w3.org/1999/xlink"><g><g transform="rotate(0 50 50)">
  <rect fill="#ffae00" height="3" width="9" ry="1.5" rx="1.8900000000000001" y="18.5" x="45.5">
    <animate repeatCount="indefinite" begin="-1.1666666666666667s" dur="1.25s" keyTimes="0;1" values="1;0" attributeName="opacity"></animate>
  </rect>
</g><g transform="rotate(24 50 50)">
  <rect fill="#ffae00" height="3" width="9" ry="1.5" rx="1.8900000000000001" y="18.5" x="45.5">
    <animate repeatCount="indefinite" begin="-1.0833333333333333s" dur="1.25s" keyTimes="0;1" values="1;0" attributeName="opacity"></animate>
  </rect>
</g><g transform="rotate(48 50 50)">
  <rect fill="#ffae00" height="3" width="9" ry="1.5" rx="1.8900000000000001" y="18.5" x="45.5">
    <animate repeatCount="indefinite" begin="-1s" dur="1.25s" keyTimes="0;1" values="1;0" attributeName="opacity"></animate>
  </rect>
</g><g transform="rotate(72 50 50)">
  <rect fill="#ffae00" height="3" width="9" ry="1.5" rx="1.8900000000000001" y="18.5" x="45.5">
    <animate repeatCount="indefinite" begin="-0.9166666666666666s" dur="1.25s" keyTimes="0;1" values="1;0" attributeName="opacity"></animate>
  </rect>
</g><g transform="rotate(96 50 50)">
  <rect fill="#ffae00" height="3" width="9" ry="1.5" rx="1.8900000000000001" y="18.5" x="45.5">
    <animate repeatCount="indefinite" begin="-0.8333333333333334s" dur="1.25s" keyTimes="0;1" values="1;0" attributeName="opacity"></animate>
  </rect>
</g><g transform="rotate(120 50 50)">
  <rect fill="#ffae00" height="3" width="9" ry="1.5" rx="1.8900000000000001" y="18.5" x="45.5">
    <animate repeatCount="indefinite" begin="-0.75s" dur="1.25s" keyTimes="0;1" values="1;0" attributeName="opacity"></animate>
  </rect>
</g><g transform="rotate(144 50 50)">
  <rect fill="#ffae00" height="3" width="9" ry="1.5" rx="1.8900000000000001" y="18.5" x="45.5">
    <animate repeatCount="indefinite" begin="-0.6666666666666666s" dur="1.25s" keyTimes="0;1" values="1;0" attributeName="opacity"></animate>
  </rect>
</g><g transform="rotate(168 50 50)">
  <rect fill="#ffae00" height="3" width="9" ry="1.5" rx="1.8900000000000001" y="18.5" x="45.5">
    <animate repeatCount="indefinite" begin="-0.5833333333333334s" dur="1.25s" keyTimes="0;1" values="1;0" attributeName="opacity"></animate>
  </rect>
</g><g transform="rotate(192 50 50)">
  <rect fill="#ffae00" height="3" width="9" ry="1.5" rx="1.8900000000000001" y="18.5" x="45.5">
    <animate repeatCount="indefinite" begin="-0.5s" dur="1.25s" keyTimes="0;1" values="1;0" attributeName="opacity"></animate>
  </rect>
</g><g transform="rotate(216 50 50)">
  <rect fill="#ffae00" height="3" width="9" ry="1.5" rx="1.8900000000000001" y="18.5" x="45.5">
    <animate repeatCount="indefinite" begin="-0.4166666666666667s" dur="1.25s" keyTimes="0;1" values="1;0" attributeName="opacity"></animate>
  </rect>
</g><g transform="rotate(240 50 50)">
  <rect fill="#ffae00" height="3" width="9" ry="1.5" rx="1.8900000000000001" y="18.5" x="45.5">
    <animate repeatCount="indefinite" begin="-0.3333333333333333s" dur="1.25s" keyTimes="0;1" values="1;0" attributeName="opacity"></animate>
  </rect>
</g><g transform="rotate(264 50 50)">
  <rect fill="#ffae00" height="3" width="9" ry="1.5" rx="1.8900000000000001" y="18.5" x="45.5">
    <animate repeatCount="indefinite" begin="-0.25s" dur="1.25s" keyTimes="0;1" values="1;0" attributeName="opacity"></animate>
  </rect>
</g><g transform="rotate(288 50 50)">
  <rect fill="#ffae00" height="3" width="9" ry="1.5" rx="1.8900000000000001" y="18.5" x="45.5">
    <animate repeatCount="indefinite" begin="-0.16666666666666666s" dur="1.25s" keyTimes="0;1" values="1;0" attributeName="opacity"></animate>
  </rect>
</g><g transform="rotate(312 50 50)">
  <rect fill="#ffae00" height="3" width="9" ry="1.5" rx="1.8900000000000001" y="18.5" x="45.5">
    <animate repeatCount="indefinite" begin="-0.08333333333333333s" dur="1.25s" keyTimes="0;1" values="1;0" attributeName="opacity"></animate>
  </rect>
</g><g transform="rotate(336 50 50)">
  <rect fill="#ffae00" height="3" width="9" ry="1.5" rx="1.8900000000000001" y="18.5" x="45.5">
    <animate repeatCount="indefinite" begin="0s" dur="1.25s" keyTimes="0;1" values="1;0" attributeName="opacity"></animate>
  </rect>
</g><g></g></g><!-- [ldio] generated by https://loading.io --></svg>